<?xml version="1.0" encoding="utf-8"?>
<svg xmlns="http://www.w3.org/2000/svg" style="margin: auto; background: none; display: block; shape-rendering: auto;" width="280" height="250" preserveAspectRatio="xMidYMid">
<style type="text/css">
  text {
    text-anchor: middle; font-size: 10px; opacity: 0;
  }
</style>
<g style="transform-origin:140px 125px;transform:scale(1)">
<g transform="translate(140,125)">
  <g transform="translate(0,0)"><g class="path" style="opacity: 1; transform-origin: -79.99px -2.47844px; animation: 2.27273s linear -1.33333s infinite normal forwards running fade-752ad176-ef1f-47ee-932c-6b06a214faab;"><path d="M5.59-13.34L5.59-13.34L5.59-13.34Q5.59-10.94 6.21-8.99L6.21-8.99L6.21-8.99Q6.84-7.03 7.96-5.62L7.96-5.62L7.96-5.62Q9.08-4.22 10.64-3.46L10.64-3.46L10.64-3.46Q12.20-2.70 14.06-2.70L14.06-2.70L14.06-2.70Q15.92-2.70 17.29-3.13L17.29-3.13L17.29-3.13Q18.66-3.57 19.95-4.33L19.95-4.33L21.05-1.33L21.05-1.33Q19.65-0.57 17.84-0.06L17.84-0.06L17.84-0.06Q16.04 0.46 13.64 0.46L13.64 0.46L13.64 0.46Q11.02 0.46 8.87-0.49L8.87-0.49L8.87-0.49Q6.73-1.44 5.17-3.21L5.17-3.21L5.17-3.21Q3.61-4.98 2.75-7.50L2.75-7.50L2.75-7.50Q1.90-10.03 1.90-13.19L1.90-13.19L1.90-13.19Q1.90-16.23 2.75-18.77L2.75-18.77L2.75-18.77Q3.61-21.32 5.21-23.16L5.21-23.16L5.21-23.16Q6.80-25.00 9.06-26.03L9.06-26.03L9.06-26.03Q11.32-27.06 14.10-27.06L14.10-27.06L14.10-27.06Q16.04-27.06 17.57-26.70L17.57-26.70L17.57-26.70Q19.11-26.33 20.48-25.69L20.48-25.69L19.38-22.65L19.38-22.65Q18.20-23.22 16.97-23.56L16.97-23.56L16.97-23.56Q15.73-23.90 14.06-23.90L14.06-23.90L14.06-23.90Q12.24-23.90 10.68-23.20L10.68-23.20L10.68-23.20Q9.12-22.50 7.98-21.13L7.98-21.13L7.98-21.13Q6.84-19.76 6.21-17.80L6.21-17.80L6.21-17.80Q5.59-15.85 5.59-13.34" fill="#182731" stroke="none" stroke-width="none" transform="translate(-91.46501731872559,10.821558100382491)" style="fill: rgb(24, 39, 49);"></path></g><g class="path" style="opacity: 1; transform-origin: -58.67px 0.941559px; animation: 2.27273s linear -1.16667s infinite normal forwards running fade-752ad176-ef1f-47ee-932c-6b06a214faab;"><path d="M39.14-9.88L39.14-9.88L39.14-9.88Q39.14-11.36 38.66-12.69L38.66-12.69L38.66-12.69Q38.19-14.02 37.34-15.01L37.34-15.01L37.34-15.01Q36.48-16.00 35.32-16.59L35.32-16.59L35.32-16.59Q34.16-17.18 32.79-17.18L32.79-17.18L32.79-17.18Q29.79-17.18 28.12-15.20L28.12-15.20L28.12-15.20Q26.45-13.22 26.45-9.96L26.45-9.96L26.45-9.96Q26.45-8.47 26.92-7.13L26.92-7.13L26.92-7.13Q27.40-5.78 28.25-4.77L28.25-4.77L28.25-4.77Q29.11-3.76 30.27-3.17L30.27-3.17L30.27-3.17Q31.43-2.58 32.79-2.58L32.79-2.58L32.79-2.58Q34.28-2.58 35.45-3.12L35.45-3.12L35.45-3.12Q36.63-3.65 37.45-4.62L37.45-4.62L37.45-4.62Q38.27-5.59 38.70-6.92L38.70-6.92L38.70-6.92Q39.14-8.25 39.14-9.88zM22.95-9.88L22.95-9.88L22.95-9.88Q22.95-12.27 23.71-14.19L23.71-14.19L23.71-14.19Q24.47-16.11 25.78-17.44L25.78-17.44L25.78-17.44Q27.09-18.77 28.90-19.49L28.90-19.49L28.90-19.49Q30.70-20.22 32.79-20.22L32.79-20.22L32.79-20.22Q34.85-20.22 36.65-19.49L36.65-19.49L36.65-19.49Q38.46-18.77 39.79-17.44L39.79-17.44L39.79-17.44Q41.12-16.11 41.88-14.21L41.88-14.21L41.88-14.21Q42.64-12.31 42.64-9.96L42.64-9.96L42.64-9.96Q42.64-7.60 41.89-5.68L41.89-5.68L41.89-5.68Q41.15-3.76 39.82-2.39L39.82-2.39L39.82-2.39Q38.49-1.03 36.69-0.28L36.69-0.28L36.69-0.28Q34.88 0.46 32.79 0.46L32.79 0.46L32.79 0.46Q30.67 0.46 28.86-0.30L28.86-0.30L28.86-0.30Q27.06-1.06 25.74-2.43L25.74-2.43L25.74-2.43Q24.43-3.80 23.69-5.70L23.69-5.70L23.69-5.70Q22.95-7.60 22.95-9.88" fill="#182731" stroke="none" stroke-width="none" transform="translate(-91.46501731872559,10.821558100382491)" style="fill: rgb(24, 39, 49);"></path></g><g class="path" style="opacity: 1; transform-origin: -35.165px 1.17156px; animation: 2.27273s linear -1s infinite normal forwards running fade-752ad176-ef1f-47ee-932c-6b06a214faab;"><path d="M65.59-2.47L64.87 0.19L64.87 0.19Q63.04 0.19 61.98-0.53L61.98-0.53L61.98-0.53Q60.91-1.25 60.50-2.62L60.50-2.62L60.50-2.62Q59.17-1.25 57.44-0.40L57.44-0.40L57.44-0.40Q55.71 0.46 53.66 0.46L53.66 0.46L53.66 0.46Q52.36 0.46 51.17 0.06L51.17 0.06L51.17 0.06Q49.97-0.34 49.04-1.22L49.04-1.22L49.04-1.22Q48.11-2.09 47.56-3.50L47.56-3.50L47.56-3.50Q47.01-4.90 47.01-6.92L47.01-6.92L47.01-19.76L50.43-19.76L50.43-7.37L50.43-7.37Q50.43-5.05 51.39-3.82L51.39-3.82L51.39-3.82Q52.36-2.58 54.30-2.58L54.30-2.58L54.30-2.58Q55.90-2.58 57.34-3.21L57.34-3.21L57.34-3.21Q58.79-3.84 59.93-4.90L59.93-4.90L59.93-19.76L63.35-19.76L63.35-5.13L63.35-5.13Q63.35-4.29 63.54-3.78L63.54-3.78L63.54-3.78Q63.73-3.27 64.03-2.98L64.03-2.98L64.03-2.98Q64.33-2.70 64.75-2.58L64.75-2.58L64.75-2.58Q65.17-2.47 65.59-2.47L65.59-2.47" fill="#182731" stroke="none" stroke-width="none" transform="translate(-91.46501731872559,10.821558100382491)" style="fill: rgb(24, 39, 49);"></path></g><g class="path" style="opacity: 1; transform-origin: -15.445px 0.711559px; animation: 2.27273s linear -0.833333s infinite normal forwards running fade-752ad176-ef1f-47ee-932c-6b06a214faab;"><path d="M81.89-19.99L80.86-16.45L80.86-16.45Q80.14-16.76 79.15-16.76L79.15-16.76L79.15-16.76Q78.09-16.76 77.08-16.30L77.08-16.30L77.08-16.30Q76.08-15.85 75.30-14.93L75.30-14.93L75.30-14.93Q74.52-14.02 74.04-12.60L74.04-12.60L74.04-12.60Q73.57-11.17 73.57-9.23L73.57-9.23L73.57 0L70.15 0L70.15-19.76L73.45-19.76L73.45-15.47L73.45-15.47Q73.80-16.38 74.37-17.25L74.37-17.25L74.37-17.25Q74.94-18.13 75.72-18.77L75.72-18.77L75.72-18.77Q76.49-19.42 77.52-19.82L77.52-19.82L77.52-19.82Q78.55-20.22 79.80-20.22L79.80-20.22L79.80-20.22Q80.37-20.22 80.92-20.16L80.92-20.16L80.92-20.16Q81.47-20.10 81.89-19.99L81.89-19.99" fill="#182731" stroke="none" stroke-width="none" transform="translate(-91.46501731872559,10.821558100382491)" style="fill: rgb(24, 39, 49);"></path></g><g class="path" style="opacity: 1; transform-origin: -1.35002px 0.941559px; animation: 2.27273s linear -0.666667s infinite normal forwards running fade-752ad176-ef1f-47ee-932c-6b06a214faab;"><path d="M82.65-1.60L84.09-4.45L84.09-4.45Q85.08-3.57 86.58-3.04L86.58-3.04L86.58-3.04Q88.08-2.51 89.79-2.51L89.79-2.51L89.79-2.51Q91.92-2.51 93.01-3.21L93.01-3.21L93.01-3.21Q94.09-3.91 94.09-5.02L94.09-5.02L94.09-5.02Q94.09-5.59 93.88-6.08L93.88-6.08L93.88-6.08Q93.67-6.57 93.12-7.03L93.12-7.03L93.12-7.03Q92.57-7.49 91.62-7.92L91.62-7.92L91.62-7.92Q90.67-8.36 89.15-8.89L89.15-8.89L89.15-8.89Q86.34-9.84 84.97-11.15L84.97-11.15L84.97-11.15Q83.60-12.46 83.60-14.78L83.60-14.78L83.60-14.78Q83.60-15.92 84.11-16.91L84.11-16.91L84.11-16.91Q84.63-17.90 85.60-18.64L85.60-18.64L85.60-18.64Q86.56-19.38 87.95-19.80L87.95-19.80L87.95-19.80Q89.34-20.22 91.12-20.22L91.12-20.22L91.12-20.22Q93.06-20.22 94.53-19.82L94.53-19.82L94.53-19.82Q95.99-19.42 97.17-18.81L97.17-18.81L96.22-16.00L96.22-16.00Q95.19-16.61 93.88-16.99L93.88-16.99L93.88-16.99Q92.57-17.37 90.97-17.37L90.97-17.37L90.97-17.37Q89.00-17.37 87.97-16.57L87.97-16.57L87.97-16.57Q86.94-15.77 86.94-14.82L86.94-14.82L86.94-14.82Q86.94-14.36 87.12-13.98L87.12-13.98L87.12-13.98Q87.29-13.60 87.74-13.26L87.74-13.26L87.74-13.26Q88.20-12.92 88.96-12.58L88.96-12.58L88.96-12.58Q89.72-12.24 90.86-11.86L90.86-11.86L90.86-11.86Q92.72-11.21 94.01-10.54L94.01-10.54L94.01-10.54Q95.30-9.88 96.10-9.08L96.10-9.08L96.10-9.08Q96.90-8.28 97.24-7.35L97.24-7.35L97.24-7.35Q97.58-6.42 97.58-5.28L97.58-5.28L97.58-5.28Q97.58-3.95 97.01-2.89L97.01-2.89L97.01-2.89Q96.44-1.82 95.42-1.08L95.42-1.08L95.42-1.08Q94.39-0.34 92.93 0.06L92.93 0.06L92.93 0.06Q91.47 0.46 89.68 0.46L89.68 0.46L89.68 0.46Q87.40 0.46 85.61-0.11L85.61-0.11L85.61-0.11Q83.83-0.68 82.65-1.60L82.65-1.60" fill="#182731" stroke="none" stroke-width="none" transform="translate(-91.46501731872559,10.821558100382491)" style="fill: rgb(24, 39, 49);"></path></g><g class="path" style="opacity: 1; transform-origin: 18.07px 0.941559px; animation: 2.27273s linear -0.5s infinite normal forwards running fade-752ad176-ef1f-47ee-932c-6b06a214faab;"><path d="M118.14-8.47L104.31-8.47L104.31-8.47Q104.65-5.70 106.25-4.14L106.25-4.14L106.25-4.14Q107.84-2.58 110.47-2.58L110.47-2.58L110.47-2.58Q112.18-2.58 113.54-2.94L113.54-2.94L113.54-2.94Q114.91-3.31 116.17-3.88L116.17-3.88L116.96-0.95L116.96-0.95Q115.60-0.30 113.89 0.08L113.89 0.08L113.89 0.08Q112.18 0.46 110.05 0.46L110.05 0.46L110.05 0.46Q107.92 0.46 106.21-0.25L106.21-0.25L106.21-0.25Q104.50-0.95 103.30-2.26L103.30-2.26L103.30-2.26Q102.11-3.57 101.46-5.49L101.46-5.49L101.46-5.49Q100.81-7.41 100.81-9.88L100.81-9.88L100.81-9.88Q100.81-12.08 101.46-13.98L101.46-13.98L101.46-13.98Q102.11-15.88 103.28-17.27L103.28-17.27L103.28-17.27Q104.46-18.66 106.10-19.44L106.10-19.44L106.10-19.44Q107.73-20.22 109.74-20.22L109.74-20.22L109.74-20.22Q111.87-20.22 113.47-19.49L113.47-19.49L113.47-19.49Q115.06-18.77 116.13-17.52L116.13-17.52L116.13-17.52Q117.19-16.26 117.72-14.59L117.72-14.59L117.72-14.59Q118.26-12.92 118.26-11.06L118.26-11.06L118.26-11.06Q118.26-9.73 118.14-8.47L118.14-8.47zM109.67-17.25L109.67-17.25L109.67-17.25Q107.43-17.25 106.00-15.73L106.00-15.73L106.00-15.73Q104.58-14.21 104.27-11.25L104.27-11.25L115.10-11.25L115.10-11.25Q115.10-14.14 113.66-15.69L113.66-15.69L113.66-15.69Q112.21-17.25 109.67-17.25" fill="#182731" stroke="none" stroke-width="none" transform="translate(-91.46501731872559,10.821558100382491)" style="fill: rgb(24, 39, 49);"></path></g><g class="path" style="opacity: 1; transform-origin: 39.715px -2.47844px; animation: 2.27273s linear -0.333333s infinite normal forwards running fade-752ad176-ef1f-47ee-932c-6b06a214faab;"><path d="M123.20 0L123.20-26.60L139.16-26.60L139.16-23.48L126.81-23.48L126.81-15.39L137.45-15.39L137.45-12.35L126.81-12.35L126.81-3.12L139.16-3.12L139.16 0L123.20 0" fill="#182731" stroke="none" stroke-width="none" transform="translate(-91.46501731872559,10.821558100382491)" style="fill: rgb(24, 39, 49);"></path></g><g class="path" style="opacity: 1; transform-origin: 60.385px -3.00844px; animation: 2.27273s linear -0.166667s infinite normal forwards running fade-752ad176-ef1f-47ee-932c-6b06a214faab;"><path d="M150.63 0.46L150.63 0.46L150.63 0.46Q148.81 0.46 147.19-0.27L147.19-0.27L147.19-0.27Q145.58-0.99 144.38-2.32L144.38-2.32L144.38-2.32Q143.18-3.65 142.50-5.53L142.50-5.53L142.50-5.53Q141.82-7.41 141.82-9.77L141.82-9.77L141.82-9.77Q141.82-12.01 142.52-13.93L142.52-13.93L142.52-13.93Q143.22-15.85 144.42-17.23L144.42-17.23L144.42-17.23Q145.62-18.62 147.21-19.42L147.21-19.42L147.21-19.42Q148.81-20.22 150.59-20.22L150.59-20.22L150.59-20.22Q152.57-20.22 154.00-19.42L154.00-19.42L154.00-19.42Q155.42-18.62 156.22-17.78L156.22-17.78L156.22-28.12L159.64-28.12L159.64-4.79L159.64-4.79Q159.64-3.34 160.34-2.91L160.34-2.91L160.34-2.91Q161.04-2.47 161.88-2.47L161.88-2.47L161.16 0.19L161.16 0.19Q157.55 0.19 156.75-2.70L156.75-2.70L156.75-2.70Q155.88-1.48 154.39-0.51L154.39-0.51L154.39-0.51Q152.91 0.46 150.63 0.46zM151.39-2.58L151.39-2.58L151.39-2.58Q152.80-2.58 154.07-3.25L154.07-3.25L154.07-3.25Q155.34-3.91 156.22-4.98L156.22-4.98L156.22-14.78L156.22-14.78Q155.50-15.69 154.22-16.47L154.22-16.47L154.22-16.47Q152.95-17.25 151.35-17.25L151.35-17.25L151.35-17.25Q149.99-17.25 148.87-16.68L148.87-16.68L148.87-16.68Q147.74-16.11 146.95-15.12L146.95-15.12L146.95-15.12Q146.15-14.14 145.73-12.79L145.73-12.79L145.73-12.79Q145.31-11.44 145.31-9.88L145.31-9.88L145.31-9.88Q145.31-8.28 145.77-6.95L145.77-6.95L145.77-6.95Q146.22-5.62 147.04-4.66L147.04-4.66L147.04-4.66Q147.86-3.69 148.98-3.13L148.98-3.13L148.98-3.13Q150.10-2.58 151.39-2.58" fill="#182731" stroke="none" stroke-width="none" transform="translate(-91.46501731872559,10.821558100382491)" style="fill: rgb(24, 39, 49);"></path></g><g class="path" style="opacity: 1; transform-origin: 84.075px 1.17156px; animation: 2.27273s linear 0s infinite normal forwards running fade-752ad176-ef1f-47ee-932c-6b06a214faab;"><path d="M184.83-2.47L184.11 0.19L184.11 0.19Q182.29 0.19 181.22-0.53L181.22-0.53L181.22-0.53Q180.16-1.25 179.74-2.62L179.74-2.62L179.74-2.62Q178.41-1.25 176.68-0.40L176.68-0.40L176.68-0.40Q174.95 0.46 172.90 0.46L172.90 0.46L172.90 0.46Q171.61 0.46 170.41 0.06L170.41 0.06L170.41 0.06Q169.21-0.34 168.28-1.22L168.28-1.22L168.28-1.22Q167.35-2.09 166.80-3.50L166.80-3.50L166.80-3.50Q166.25-4.90 166.25-6.92L166.25-6.92L166.25-19.76L169.67-19.76L169.67-7.37L169.67-7.37Q169.67-5.05 170.64-3.82L170.64-3.82L170.64-3.82Q171.61-2.58 173.55-2.58L173.55-2.58L173.55-2.58Q175.14-2.58 176.59-3.21L176.59-3.21L176.59-3.21Q178.03-3.84 179.17-4.90L179.17-4.90L179.17-19.76L182.59-19.76L182.59-5.13L182.59-5.13Q182.59-4.29 182.78-3.78L182.78-3.78L182.78-3.78Q182.97-3.27 183.27-2.98L183.27-2.98L183.27-2.98Q183.58-2.70 184.00-2.58L184.00-2.58L184.00-2.58Q184.41-2.47 184.83-2.47L184.83-2.47" fill="#182731" stroke="none" stroke-width="none" transform="translate(-91.46501731872559,10.821558100382491)" style="fill: rgb(24, 39, 49);"></path></g></g>
</g>
</g>
<style id="fade-752ad176-ef1f-47ee-932c-6b06a214faab" data-anikit="">@keyframes fade-752ad176-ef1f-47ee-932c-6b06a214faab
{
  0% {
    animation-timing-function: cubic-bezier(0.2057,0.573,0.3723,0.9184);
    opacity: 1;
  }
  100% {
    opacity: 0;
  }
}</style></svg>